<svg width="168" height="162" viewBox="0 0 168 162" fill="none" xmlns="http://www.w3.org/2000/svg">
<foreignObject x="19.5728" y="0" width="136.515" height="131.584"><div xmlns="http://www.w3.org/1999/xhtml" style="backdrop-filter:blur(7px);clip-path:url(#bgblur_0_4_5977_clip_path);height:100%;width:100%"></div></foreignObject><g filter="url(#filter0_dd_4_5977)" data-figma-bg-blur-radius="14">
<mask id="path-1-inside-1_4_5977" fill="white">
<path fill-rule="evenodd" clip-rule="evenodd" d="M102.287 38.0177C103.145 37.8532 103.674 38.8674 103.237 39.6201C101.247 43.0538 101.002 47.3968 102.971 51.1917C105.607 56.2741 111.359 58.7256 116.701 57.417C117.55 57.2091 118.383 57.9963 117.985 58.7704C116.656 61.3582 114.526 63.5687 111.727 64.9965C104.613 68.6245 95.8672 65.8238 92.1928 58.7408C88.5184 51.6579 91.3065 42.9749 98.4203 39.3468C99.6709 38.709 100.972 38.2698 102.287 38.0177Z"/>
</mask>
<path fill-rule="evenodd" clip-rule="evenodd" d="M102.287 38.0177C103.145 37.8532 103.674 38.8674 103.237 39.6201C101.247 43.0538 101.002 47.3968 102.971 51.1917C105.607 56.2741 111.359 58.7256 116.701 57.417C117.55 57.2091 118.383 57.9963 117.985 58.7704C116.656 61.3582 114.526 63.5687 111.727 64.9965C104.613 68.6245 95.8672 65.8238 92.1928 58.7408C88.5184 51.6579 91.3065 42.9749 98.4203 39.3468C99.6709 38.709 100.972 38.2698 102.287 38.0177Z" fill="url(#paint0_linear_4_5977)"/>
<path d="M102.971 51.1917L104.751 50.2811L102.971 51.1917ZM111.727 64.9965L110.807 63.2201V63.2201L111.727 64.9965ZM92.1928 58.7408L90.4121 59.6514L92.1928 58.7408ZM98.4203 39.3468L99.3393 41.1231L98.4203 39.3468ZM116.701 57.417L117.187 59.3545L116.701 57.417ZM117.985 58.7704L116.199 57.8573L117.985 58.7704ZM103.237 39.6201L104.975 40.6216L103.237 39.6201ZM102.287 38.0177L102.673 39.977L102.287 38.0177ZM104.751 50.2811C103.109 47.1156 103.31 43.4929 104.975 40.6216L101.5 38.6186C99.1836 42.6148 98.8948 47.6779 101.19 52.1023L104.751 50.2811ZM116.216 55.4795C111.754 56.5726 106.951 54.5211 104.751 50.2811L101.19 52.1023C104.264 58.0271 110.965 60.8786 117.187 59.3545L116.216 55.4795ZM116.199 57.8573C115.054 60.0859 113.222 61.9886 110.807 63.2201L112.646 66.7728C115.83 65.1489 118.257 62.6305 119.771 59.6835L116.199 57.8573ZM110.807 63.2201C104.676 66.3474 97.1389 63.9322 93.9734 57.8302L90.4121 59.6514C94.5955 67.7154 104.55 70.9017 112.646 66.7728L110.807 63.2201ZM93.9734 57.8302C90.8087 51.7298 93.209 44.2496 99.3393 41.1231L97.5012 37.5705C89.404 41.7001 86.228 51.5859 90.4121 59.6514L93.9734 57.8302ZM99.3393 41.1231C100.42 40.572 101.541 40.1939 102.673 39.977L101.901 36.0585C100.403 36.3458 98.9217 36.846 97.5012 37.5705L99.3393 41.1231ZM117.187 59.3545C116.886 59.4281 116.589 59.3304 116.384 59.1224C116.273 59.01 116.154 58.8302 116.104 58.5812C116.052 58.3146 116.098 58.0549 116.199 57.8573L119.771 59.6835C120.421 58.4168 120.012 57.1127 119.237 56.3285C118.503 55.5855 117.365 55.198 116.216 55.4795L117.187 59.3545ZM104.975 40.6216C105.566 39.6024 105.507 38.4087 104.994 37.5009C104.452 36.5429 103.306 35.7891 101.901 36.0585L102.673 39.977C102.453 40.0191 102.189 39.9907 101.946 39.8663C101.719 39.7501 101.579 39.5863 101.501 39.449C101.358 39.1954 101.346 38.8851 101.5 38.6186L104.975 40.6216Z" fill="url(#paint1_linear_4_5977)" mask="url(#path-1-inside-1_4_5977)"/>
</g>
<mask id="mask0_4_5977" style="mask-type:alpha" maskUnits="userSpaceOnUse" x="96" y="56" width="27" height="20">
<path d="M122.895 61.9414C122.895 69.178 116.986 75.0444 109.697 75.0444C102.409 75.0444 96.5 69.178 96.5 61.9414C96.5 54.7049 101.402 56.3893 108.691 56.3893C115.979 56.3893 122.895 54.7049 122.895 61.9414Z" fill="url(#paint2_linear_4_5977)"/>
</mask>
<g mask="url(#mask0_4_5977)">
<g filter="url(#filter1_f_4_5977)">
<path fill-rule="evenodd" clip-rule="evenodd" d="M86.3231 95.4756C86.2857 95.476 86.2482 95.4762 86.2107 95.4762C80.8986 95.4762 76.5923 91.2007 76.5923 85.9266C76.5923 80.6525 80.8986 76.377 86.2107 76.377C90.7896 76.377 94.6212 79.5536 95.5917 83.8083L98.8489 79.7082L109.026 76.377H120.099V76.3776C120.136 76.3772 120.173 76.377 120.211 76.377C125.523 76.377 129.829 80.6525 129.829 85.9266C129.829 91.2007 125.523 95.4762 120.211 95.4762C120.173 95.4762 120.136 95.476 120.099 95.4756V95.4762H86.3225L86.3231 95.4756Z" fill="#E18700"/>
</g>
</g>
<foreignObject x="0" y="25.831" width="153.237" height="135.756"><div xmlns="http://www.w3.org/1999/xhtml" style="backdrop-filter:blur(7px);clip-path:url(#bgblur_1_4_5977_clip_path);height:100%;width:100%"></div></foreignObject><g filter="url(#filter2_d_4_5977)" data-figma-bg-blur-radius="14">
<mask id="path-5-inside-2_4_5977" fill="white">
<path fill-rule="evenodd" clip-rule="evenodd" d="M114.507 96.586C114.544 96.5864 114.581 96.5866 114.618 96.5866C119.931 96.5866 124.237 92.3111 124.237 87.037C124.237 81.7629 119.931 77.4874 114.618 77.4874C114.581 77.4874 114.544 77.4876 114.507 77.488V77.4874H112.022C112.112 76.8338 112.158 76.1666 112.158 75.4886C112.158 67.3934 105.548 60.831 97.3947 60.831C89.2413 60.831 82.6316 67.3934 82.6316 75.4886C82.6316 76.2524 82.6904 77.0026 82.8039 77.735C82.1018 77.573 81.3702 77.4874 80.6184 77.4874C75.3063 77.4874 71 81.7629 71 87.037C71 92.3111 75.3063 96.5866 80.6184 96.5866C80.6559 96.5866 80.6934 96.5864 80.7308 96.586L80.7303 96.5866H114.507V96.586Z"/>
</mask>
<path fill-rule="evenodd" clip-rule="evenodd" d="M114.507 96.586C114.544 96.5864 114.581 96.5866 114.618 96.5866C119.931 96.5866 124.237 92.3111 124.237 87.037C124.237 81.7629 119.931 77.4874 114.618 77.4874C114.581 77.4874 114.544 77.4876 114.507 77.488V77.4874H112.022C112.112 76.8338 112.158 76.1666 112.158 75.4886C112.158 67.3934 105.548 60.831 97.3947 60.831C89.2413 60.831 82.6316 67.3934 82.6316 75.4886C82.6316 76.2524 82.6904 77.0026 82.8039 77.735C82.1018 77.573 81.3702 77.4874 80.6184 77.4874C75.3063 77.4874 71 81.7629 71 87.037C71 92.3111 75.3063 96.5866 80.6184 96.5866C80.6559 96.5866 80.6934 96.5864 80.7308 96.586L80.7303 96.5866H114.507V96.586Z" fill="url(#paint3_linear_4_5977)" shape-rendering="crispEdges"/>
<path d="M114.507 96.586L114.529 94.5861C113.995 94.5801 113.48 94.7881 113.1 95.1638C112.72 95.5395 112.507 96.0517 112.507 96.586H114.507ZM114.507 77.488H112.507C112.507 78.0224 112.72 78.5345 113.1 78.9102C113.48 79.2859 113.995 79.4939 114.529 79.4879L114.507 77.488ZM114.507 77.4874H116.507C116.507 76.3828 115.611 75.4874 114.507 75.4874V77.4874ZM112.022 77.4874L110.04 77.2153C109.962 77.7878 110.135 78.3663 110.514 78.8019C110.894 79.2374 111.444 79.4874 112.022 79.4874V77.4874ZM82.8039 77.735L82.3543 79.6838C83.0009 79.8329 83.6794 79.6516 84.1655 79.1999C84.6516 78.7481 84.8819 78.0846 84.7803 77.4288L82.8039 77.735ZM80.7308 96.586L82.2952 97.832C82.7763 97.228 82.8666 96.4011 82.5275 95.7075C82.1883 95.0138 81.4802 94.5774 80.7081 94.5861L80.7308 96.586ZM80.7303 96.5866L79.1658 95.3407C78.6873 95.9415 78.5952 96.7631 78.9286 97.455C79.2621 98.1468 79.9622 98.5866 80.7303 98.5866V96.5866ZM114.507 96.5866V98.5866C115.611 98.5866 116.507 97.6912 116.507 96.5866H114.507ZM114.484 98.5859C114.529 98.5864 114.573 98.5866 114.618 98.5866V94.5866C114.589 94.5866 114.559 94.5865 114.529 94.5861L114.484 98.5859ZM114.618 98.5866C121.022 98.5866 126.237 93.4292 126.237 87.037H122.237C122.237 91.193 118.84 94.5866 114.618 94.5866V98.5866ZM126.237 87.037C126.237 80.6448 121.022 75.4874 114.618 75.4874V79.4874C118.84 79.4874 122.237 82.881 122.237 87.037H126.237ZM114.618 75.4874C114.574 75.4874 114.529 75.4876 114.484 75.4881L114.529 79.4879C114.559 79.4875 114.589 79.4874 114.618 79.4874V75.4874ZM112.507 77.4874V77.488H116.507V77.4874H112.507ZM112.022 79.4874H114.507V75.4874H112.022V79.4874ZM114.003 77.7595C114.105 77.016 114.158 76.2579 114.158 75.4886H110.158C110.158 76.0753 110.118 76.6516 110.04 77.2153L114.003 77.7595ZM114.158 75.4886C114.158 66.2754 106.639 58.831 97.3947 58.831V62.831C104.457 62.831 110.158 68.5115 110.158 75.4886H114.158ZM97.3947 58.831C88.1503 58.831 80.6316 66.2754 80.6316 75.4886H84.6316C84.6316 68.5115 90.3323 62.831 97.3947 62.831V58.831ZM80.6316 75.4886C80.6316 76.3553 80.6984 77.2079 80.8274 78.0411L84.7803 77.4288C84.6825 76.7974 84.6316 76.1496 84.6316 75.4886H80.6316ZM83.2534 75.7861C82.4049 75.5904 81.5225 75.4874 80.6184 75.4874V79.4874C81.2178 79.4874 81.7986 79.5556 82.3543 79.6838L83.2534 75.7861ZM80.6184 75.4874C74.2153 75.4874 69 80.6448 69 87.037H73C73 82.881 76.3973 79.4874 80.6184 79.4874V75.4874ZM69 87.037C69 93.4292 74.2153 98.5866 80.6184 98.5866V94.5866C76.3973 94.5866 73 91.193 73 87.037H69ZM80.6184 98.5866C80.6635 98.5866 80.7085 98.5864 80.7534 98.5859L80.7081 94.5861C80.6782 94.5865 80.6483 94.5866 80.6184 94.5866V98.5866ZM82.2947 97.8326L82.2952 97.832L79.1663 95.34L79.1658 95.3407L82.2947 97.8326ZM114.507 94.5866H80.7303V98.5866H114.507V94.5866ZM112.507 96.586V96.5866H116.507V96.586H112.507Z" fill="url(#paint4_linear_4_5977)" mask="url(#path-5-inside-2_4_5977)"/>
</g>
<foreignObject x="29.5264" y="25.831" width="138.474" height="125.84"><div xmlns="http://www.w3.org/1999/xhtml" style="backdrop-filter:blur(7px);clip-path:url(#bgblur_2_4_5977_clip_path);height:100%;width:100%"></div></foreignObject><g filter="url(#filter3_d_4_5977)" data-figma-bg-blur-radius="14">
<mask id="path-7-inside-3_4_5977" fill="white">
<path fill-rule="evenodd" clip-rule="evenodd" d="M131.968 86.6708C131.995 86.6711 132.022 86.6712 132.049 86.6712C135.888 86.6712 139 83.5813 139 79.7698C139 75.9582 135.888 72.8684 132.049 72.8684C132.022 72.8684 131.995 72.8685 131.968 72.8688V72.8684H130.172C130.237 72.3961 130.271 71.9139 130.271 71.4239C130.271 65.5736 125.494 60.831 119.602 60.831C113.709 60.831 108.932 65.5736 108.932 71.4239C108.932 71.9759 108.975 72.5181 109.057 73.0473C108.549 72.9303 108.021 72.8684 107.477 72.8684C103.638 72.8684 100.526 75.9582 100.526 79.7698C100.526 83.5813 103.638 86.6712 107.477 86.6712C107.505 86.6712 107.532 86.6711 107.559 86.6707L107.558 86.6712H131.968V86.6708Z"/>
</mask>
<path fill-rule="evenodd" clip-rule="evenodd" d="M131.968 86.6708C131.995 86.6711 132.022 86.6712 132.049 86.6712C135.888 86.6712 139 83.5813 139 79.7698C139 75.9582 135.888 72.8684 132.049 72.8684C132.022 72.8684 131.995 72.8685 131.968 72.8688V72.8684H130.172C130.237 72.3961 130.271 71.9139 130.271 71.4239C130.271 65.5736 125.494 60.831 119.602 60.831C113.709 60.831 108.932 65.5736 108.932 71.4239C108.932 71.9759 108.975 72.5181 109.057 73.0473C108.549 72.9303 108.021 72.8684 107.477 72.8684C103.638 72.8684 100.526 75.9582 100.526 79.7698C100.526 83.5813 103.638 86.6712 107.477 86.6712C107.505 86.6712 107.532 86.6711 107.559 86.6707L107.558 86.6712H131.968V86.6708Z" fill="url(#paint5_linear_4_5977)" shape-rendering="crispEdges"/>
<path d="M131.968 86.6708L131.991 84.6709C131.456 84.6648 130.942 84.8728 130.562 85.2485C130.182 85.6242 129.968 86.1364 129.968 86.6708H131.968ZM131.968 72.8688H129.968C129.968 73.4032 130.182 73.9153 130.562 74.291C130.942 74.6667 131.456 74.8747 131.991 74.8687L131.968 72.8688ZM131.968 72.8684H133.968C133.968 71.7638 133.073 70.8684 131.968 70.8684V72.8684ZM130.172 72.8684L128.191 72.5963C128.112 73.1688 128.285 73.7473 128.665 74.1829C129.045 74.6184 129.594 74.8684 130.172 74.8684V72.8684ZM109.057 73.0473L108.607 74.9961C109.254 75.1453 109.932 74.964 110.419 74.5122C110.905 74.0604 111.135 73.3969 111.033 72.7411L109.057 73.0473ZM107.559 86.6707L109.125 87.9138C109.605 87.3095 109.694 86.4832 109.355 85.7905C109.015 85.0978 108.307 84.6621 107.536 84.6709L107.559 86.6707ZM107.558 86.6712L105.992 85.4281C105.515 86.0293 105.424 86.8503 105.757 87.5412C106.091 88.2322 106.791 88.6712 107.558 88.6712V86.6712ZM131.968 86.6712V88.6712C133.073 88.6712 133.968 87.7758 133.968 86.6712H131.968ZM131.945 88.6706C131.98 88.671 132.014 88.6712 132.049 88.6712V84.6712C132.029 84.6712 132.01 84.6711 131.991 84.6709L131.945 88.6706ZM132.049 88.6712C136.979 88.6712 141 84.6994 141 79.7698H137C137 82.4633 134.797 84.6712 132.049 84.6712V88.6712ZM141 79.7698C141 74.8402 136.979 70.8684 132.049 70.8684V74.8684C134.797 74.8684 137 77.0763 137 79.7698H141ZM132.049 70.8684C132.014 70.8684 131.98 70.8686 131.945 70.869L131.991 74.8687C132.01 74.8685 132.029 74.8684 132.049 74.8684V70.8684ZM129.968 72.8684V72.8688H133.968V72.8684H129.968ZM130.172 74.8684H131.968V70.8684H130.172V74.8684ZM132.154 73.1405C132.231 72.5783 132.271 72.0052 132.271 71.4239H128.271C128.271 71.8226 128.243 72.2139 128.191 72.5963L132.154 73.1405ZM132.271 71.4239C132.271 64.4555 126.585 58.831 119.602 58.831V62.831C124.403 62.831 128.271 66.6917 128.271 71.4239H132.271ZM119.602 58.831C112.618 58.831 106.932 64.4555 106.932 71.4239H110.932C110.932 66.6917 114.8 62.831 119.602 62.831V58.831ZM106.932 71.4239C106.932 72.0788 106.983 72.7233 107.08 73.3535L111.033 72.7411C110.967 72.3128 110.932 71.873 110.932 71.4239H106.932ZM109.506 71.0985C108.853 70.9477 108.173 70.8684 107.477 70.8684V74.8684C107.868 74.8684 108.246 74.9129 108.607 74.9961L109.506 71.0985ZM107.477 70.8684C102.547 70.8684 98.5264 74.8402 98.5264 79.7698H102.526C102.526 77.0763 104.73 74.8684 107.477 74.8684V70.8684ZM98.5264 79.7698C98.5264 84.6994 102.547 88.6712 107.477 88.6712V84.6712C104.73 84.6712 102.526 82.4633 102.526 79.7698H98.5264ZM107.477 88.6712C107.512 88.6712 107.547 88.671 107.581 88.6706L107.536 84.6709C107.516 84.6711 107.497 84.6712 107.477 84.6712V88.6712ZM109.125 87.9143L109.125 87.9138L105.992 85.4277L105.992 85.4281L109.125 87.9143ZM131.968 84.6712H107.558V88.6712H131.968V84.6712ZM129.968 86.6708V86.6712H133.968V86.6708H129.968Z" fill="url(#paint6_linear_4_5977)" mask="url(#path-7-inside-3_4_5977)"/>
</g>
<defs>
<filter id="filter0_dd_4_5977" x="19.5728" y="0" width="136.515" height="131.584" filterUnits="userSpaceOnUse" color-interpolation-filters="sRGB">
<feFlood flood-opacity="0" result="BackgroundImageFix"/>
<feColorMatrix in="SourceAlpha" type="matrix" values="0 0 0 0 0 0 0 0 0 0 0 0 0 0 0 0 0 0 127 0" result="hardAlpha"/>
<feOffset dx="-21" dy="15"/>
<feGaussianBlur stdDeviation="25"/>
<feComposite in2="hardAlpha" operator="out"/>
<feColorMatrix type="matrix" values="0 0 0 0 0.113438 0 0 0 0 0.148981 0 0 0 0 0.275 0 0 0 0.25 0"/>
<feBlend mode="normal" in2="BackgroundImageFix" result="effect1_dropShadow_4_5977"/>
<feColorMatrix in="SourceAlpha" type="matrix" values="0 0 0 0 0 0 0 0 0 0 0 0 0 0 0 0 0 0 127 0" result="hardAlpha"/>
<feOffset/>
<feGaussianBlur stdDeviation="19"/>
<feComposite in2="hardAlpha" operator="out"/>
<feColorMatrix type="matrix" values="0 0 0 0 0.619608 0 0 0 0 0.423529 0 0 0 0 1 0 0 0 0.4 0"/>
<feBlend mode="normal" in2="effect1_dropShadow_4_5977" result="effect2_dropShadow_4_5977"/>
<feBlend mode="normal" in="SourceGraphic" in2="effect2_dropShadow_4_5977" result="shape"/>
</filter>
<clipPath id="bgblur_0_4_5977_clip_path" transform="translate(-19.5728 0)"><path fill-rule="evenodd" clip-rule="evenodd" d="M102.287 38.0177C103.145 37.8532 103.674 38.8674 103.237 39.6201C101.247 43.0538 101.002 47.3968 102.971 51.1917C105.607 56.2741 111.359 58.7256 116.701 57.417C117.55 57.2091 118.383 57.9963 117.985 58.7704C116.656 61.3582 114.526 63.5687 111.727 64.9965C104.613 68.6245 95.8672 65.8238 92.1928 58.7408C88.5184 51.6579 91.3065 42.9749 98.4203 39.3468C99.6709 38.709 100.972 38.2698 102.287 38.0177Z"/>
</clipPath><filter id="filter1_f_4_5977" x="62.5923" y="62.377" width="81.2368" height="47.0993" filterUnits="userSpaceOnUse" color-interpolation-filters="sRGB">
<feFlood flood-opacity="0" result="BackgroundImageFix"/>
<feBlend mode="normal" in="SourceGraphic" in2="BackgroundImageFix" result="shape"/>
<feGaussianBlur stdDeviation="7" result="effect1_foregroundBlur_4_5977"/>
</filter>
<filter id="filter2_d_4_5977" x="0" y="25.831" width="153.237" height="135.756" filterUnits="userSpaceOnUse" color-interpolation-filters="sRGB">
<feFlood flood-opacity="0" result="BackgroundImageFix"/>
<feColorMatrix in="SourceAlpha" type="matrix" values="0 0 0 0 0 0 0 0 0 0 0 0 0 0 0 0 0 0 127 0" result="hardAlpha"/>
<feOffset dx="-21" dy="15"/>
<feGaussianBlur stdDeviation="25"/>
<feComposite in2="hardAlpha" operator="out"/>
<feColorMatrix type="matrix" values="0 0 0 0 0.113725 0 0 0 0 0.14902 0 0 0 0 0.27451 0 0 0 0.25 0"/>
<feBlend mode="normal" in2="BackgroundImageFix" result="effect1_dropShadow_4_5977"/>
<feBlend mode="normal" in="SourceGraphic" in2="effect1_dropShadow_4_5977" result="shape"/>
</filter>
<clipPath id="bgblur_1_4_5977_clip_path" transform="translate(0 -25.831)"><path fill-rule="evenodd" clip-rule="evenodd" d="M114.507 96.586C114.544 96.5864 114.581 96.5866 114.618 96.5866C119.931 96.5866 124.237 92.3111 124.237 87.037C124.237 81.7629 119.931 77.4874 114.618 77.4874C114.581 77.4874 114.544 77.4876 114.507 77.488V77.4874H112.022C112.112 76.8338 112.158 76.1666 112.158 75.4886C112.158 67.3934 105.548 60.831 97.3947 60.831C89.2413 60.831 82.6316 67.3934 82.6316 75.4886C82.6316 76.2524 82.6904 77.0026 82.8039 77.735C82.1018 77.573 81.3702 77.4874 80.6184 77.4874C75.3063 77.4874 71 81.7629 71 87.037C71 92.3111 75.3063 96.5866 80.6184 96.5866C80.6559 96.5866 80.6934 96.5864 80.7308 96.586L80.7303 96.5866H114.507V96.586Z"/>
</clipPath><filter id="filter3_d_4_5977" x="29.5264" y="25.831" width="138.474" height="125.84" filterUnits="userSpaceOnUse" color-interpolation-filters="sRGB">
<feFlood flood-opacity="0" result="BackgroundImageFix"/>
<feColorMatrix in="SourceAlpha" type="matrix" values="0 0 0 0 0 0 0 0 0 0 0 0 0 0 0 0 0 0 127 0" result="hardAlpha"/>
<feOffset dx="-21" dy="15"/>
<feGaussianBlur stdDeviation="25"/>
<feComposite in2="hardAlpha" operator="out"/>
<feColorMatrix type="matrix" values="0 0 0 0 0.113438 0 0 0 0 0.148981 0 0 0 0 0.275 0 0 0 0.25 0"/>
<feBlend mode="normal" in2="BackgroundImageFix" result="effect1_dropShadow_4_5977"/>
<feBlend mode="normal" in="SourceGraphic" in2="effect1_dropShadow_4_5977" result="shape"/>
</filter>
<clipPath id="bgblur_2_4_5977_clip_path" transform="translate(-29.5264 -25.831)"><path fill-rule="evenodd" clip-rule="evenodd" d="M131.968 86.6708C131.995 86.6711 132.022 86.6712 132.049 86.6712C135.888 86.6712 139 83.5813 139 79.7698C139 75.9582 135.888 72.8684 132.049 72.8684C132.022 72.8684 131.995 72.8685 131.968 72.8688V72.8684H130.172C130.237 72.3961 130.271 71.9139 130.271 71.4239C130.271 65.5736 125.494 60.831 119.602 60.831C113.709 60.831 108.932 65.5736 108.932 71.4239C108.932 71.9759 108.975 72.5181 109.057 73.0473C108.549 72.9303 108.021 72.8684 107.477 72.8684C103.638 72.8684 100.526 75.9582 100.526 79.7698C100.526 83.5813 103.638 86.6712 107.477 86.6712C107.505 86.6712 107.532 86.6711 107.559 86.6707L107.558 86.6712H131.968V86.6708Z"/>
</clipPath><linearGradient id="paint0_linear_4_5977" x1="95.5547" y1="41.096" x2="108.697" y2="66.8296" gradientUnits="userSpaceOnUse">
<stop offset="0.0001" stop-color="#D4C0FF"/>
<stop offset="1" stop-color="#7E2FFF"/>
</linearGradient>
<linearGradient id="paint1_linear_4_5977" x1="96.8642" y1="27.0585" x2="104.857" y2="60.757" gradientUnits="userSpaceOnUse">
<stop stop-color="white"/>
<stop offset="1" stop-color="white" stop-opacity="0"/>
</linearGradient>
<linearGradient id="paint2_linear_4_5977" x1="109.697" y1="48.8385" x2="109.697" y2="75.0444" gradientUnits="userSpaceOnUse">
<stop stop-color="#FFD600"/>
<stop offset="1" stop-color="#FF7A00"/>
</linearGradient>
<linearGradient id="paint3_linear_4_5977" x1="97.6184" y1="49.3937" x2="97.6184" y2="101.584" gradientUnits="userSpaceOnUse">
<stop stop-color="white"/>
<stop offset="1" stop-color="white" stop-opacity="0"/>
</linearGradient>
<linearGradient id="paint4_linear_4_5977" x1="97.6184" y1="60.831" x2="97.6184" y2="96.5866" gradientUnits="userSpaceOnUse">
<stop stop-color="white"/>
<stop offset="1" stop-color="white" stop-opacity="0"/>
</linearGradient>
<linearGradient id="paint5_linear_4_5977" x1="121.553" y1="61.6083" x2="121.553" y2="89.591" gradientUnits="userSpaceOnUse">
<stop stop-color="white"/>
<stop offset="1" stop-color="white" stop-opacity="0"/>
</linearGradient>
<linearGradient id="paint6_linear_4_5977" x1="119.763" y1="60.831" x2="119.763" y2="86.6712" gradientUnits="userSpaceOnUse">
<stop stop-color="white"/>
<stop offset="1" stop-color="white" stop-opacity="0"/>
</linearGradient>
</defs>
</svg>
