<svg width="59" height="71" viewBox="0 0 59 71" fill="none" xmlns="http://www.w3.org/2000/svg">
<path d="M25.5021 2.22713C24.1675 0.467426 22.1051 -0.159306 19.9698 0.0335378C19.0477 7.43391 18.6109 14.9307 19.2176 22.3793C12.6176 26.1638 5.55659 29.4904 0 34.7695C0.436763 36.9631 1.79559 39.2772 4.19778 39.7111C9.41467 40.82 14.6801 41.8083 19.7029 43.6644C19.7514 50.7996 19.7999 57.9348 20.5278 65.0219C21.0131 67.3842 22.0565 70.9759 24.9925 71C26.7396 69.4573 27.8072 67.3601 28.8991 65.3593C31.6653 59.9597 34.3829 54.5601 36.8094 48.9917C43.8219 51.6433 50.7373 54.8011 58.2836 55.5966C59.7152 52.3424 58.8417 48.8712 57.0703 45.9303C53.552 39.7111 49.8638 33.5401 45.9814 27.5379C48.3351 21.8731 51.077 16.2565 51.7807 10.0855C50.4704 9.45877 49.0873 8.42224 47.5586 9.07309C43.6035 10.1337 40.1094 12.3273 36.4212 14.0147C33.0484 9.84445 29.0205 6.25274 25.5021 2.22713ZM19.4845 39.8557C14.9955 38.313 10.4338 37.1077 5.82351 36.0471C10.3125 33.058 14.9955 30.3823 19.7514 27.8271C19.4117 31.8286 19.4117 35.8542 19.4845 39.8557ZM22.3477 4.99926C25.4536 8.80792 28.9477 12.2791 32.2234 15.9672C28.7778 17.5341 25.405 19.2215 22.008 20.8848C22.469 15.6057 22.3477 10.3025 22.3477 4.99926ZM25.405 61.0445C24.7499 55.7172 24.2161 50.3657 23.7308 45.0143C26.594 45.858 29.4815 46.7017 32.3447 47.5695C30.2337 52.1495 27.9043 56.6573 25.405 61.0445ZM33.8491 44.1224C30.3308 43.1823 26.8124 42.194 23.3183 41.2057C22.833 36.3122 22.5176 31.3948 22.2992 26.5013C26.5697 24.3801 30.9131 22.3793 35.2807 20.3785C36.9792 22.9819 38.9932 25.4166 40.5219 28.1646C38.6535 33.6125 35.7903 38.6987 33.8491 44.1224ZM54.6439 50.7755C48.9902 49.522 43.652 47.3525 38.2167 45.4964C39.9881 41.1574 41.7836 36.8426 43.6763 32.5759C47.3888 38.6023 51.1255 44.6045 54.6439 50.7755ZM46.2969 15.3646C45.2535 18.0162 44.1373 20.6437 42.9726 23.2712C41.8322 21.6561 40.6917 20.0652 39.527 18.4983C41.7836 17.4136 44.0402 16.3529 46.2969 15.3646Z" fill="black"/>
</svg>
