<svg width="188" height="215" viewBox="0 0 188 215" fill="none" xmlns="http://www.w3.org/2000/svg">
<path d="M57.3501 151.078C58.2502 160.123 61.1209 168.801 62.5806 177.773C64.1376 186.989 65.5243 196.23 66.7164 205.519C67.1056 208.648 68.4193 212.144 71.5333 213.44C77.0558 215.591 83.2352 215.249 88.9523 214.027C93.0151 213.073 97.7833 212.095 100.24 208.282C103.354 203.613 102.649 197.697 102.017 192.416C100.216 181.367 100.022 170.097 97.2481 159.219C103.282 155.918 106.979 149.147 107.052 142.302C116.638 141.569 126.247 142.546 135.857 142.351C143.228 142.351 150.819 142.693 157.923 140.297C164.248 137.144 170.646 133.453 175.122 127.854C180.45 119.249 183.881 109.569 185.754 99.6438C188.625 87.8363 188.576 75.4911 186.557 63.5615C185.073 56.0077 183.589 48.3072 180.11 41.3889C177.312 34.7396 173.76 28.4815 170.208 22.2477C165.099 13.985 158.239 6.13782 148.848 2.8865C142.109 0.930819 134.908 -1.22042 127.95 0.833044C122.476 2.6176 116.443 4.45104 112.94 9.34024C92.7718 29.5082 71.3387 48.5761 47.5458 64.3437C36.5008 71.702 23.4366 76.909 15.4083 88.0319C12.3673 91.821 11.5889 96.7591 11.2239 101.477C3.90117 105.291 -1.69426 114.018 0.470942 122.452C2.22257 130.495 5.4338 138.22 9.6669 145.284C11.4428 148.071 14.5326 149.611 17.6466 150.345C22.2689 151.396 27.5724 152.838 31.8785 150.051C34.068 151.738 36.3306 153.694 39.2013 153.963C45.4049 154.501 51.414 152.52 57.3501 151.078ZM73.066 208.404C71.0711 207.817 70.8279 205.495 70.4143 203.833C68.0788 192.245 66.6434 180.511 63.9916 168.997C62.386 162.886 60.7803 156.774 59.7342 150.54C70.8765 148.829 81.5322 144.551 92.8204 143.671C92.0176 146.042 91.4338 148.634 89.7065 150.54C87.6873 152.887 84.7922 154.941 84.6705 158.314C84.2083 165.159 86.4951 171.784 87.2006 178.531C88.2711 188.236 91.0688 197.721 91.3121 207.5C85.4247 209.26 79.0264 210.384 73.066 208.404ZM29.3241 82.3116C36.9874 76.9823 45.1616 72.4354 52.679 66.8617C73.4309 51.5585 92.2609 33.7863 109.753 14.8162C112.648 11.9315 115.202 8.41129 119.119 6.82231C124.934 4.40215 131.308 2.20202 137.681 3.61989C138.849 3.88879 140.017 4.15769 141.209 4.45104C145.953 5.57556 150.697 6.96901 154.687 9.90253C162.058 15.0606 167.751 22.37 171.984 30.266C181.57 47.2316 185.048 67.2284 183.832 86.5652C182.275 97.3459 179.818 108.2 175.001 118.003C174.271 119.543 173.444 121.034 172.568 122.525C170.67 125.825 167.702 128.197 165.051 130.788C163.25 132.524 161.912 134.968 159.309 135.482C147.972 138.611 136.125 137.486 124.544 137.682C113.451 136.899 102.381 138.268 91.3608 139.393C85.7896 139.98 80.2914 141.153 74.8906 142.669C67.5435 144.771 59.9532 145.749 52.6061 147.753C44.5292 142.278 38.593 134.088 34.8951 125.116C32.7056 119.665 30.0296 114.311 29.3484 108.395C28.3023 99.7415 29.1294 90.9899 29.3241 82.3116ZM11.1996 104.826C11.4429 108.029 11.7592 111.231 12.1728 114.434C9.10742 115.68 6.09066 117.074 2.97666 118.198C4.36336 113.016 7.55036 108.64 11.1996 104.826ZM3.34164 119.91C6.5043 119.201 9.54531 118.125 12.6107 117.074C13.0972 118.981 13.5838 120.863 14.119 122.77C10.9807 124.016 7.86664 125.288 4.82562 126.705C4.26608 124.456 3.75522 122.183 3.34164 119.91ZM8.69386 136.264C7.55044 133.844 6.50426 131.399 5.57979 128.906C8.76677 127.806 12.0025 126.828 15.2138 125.752C16.0409 127.757 16.9168 129.786 17.8169 131.766C14.6543 133.037 11.6376 134.602 8.69386 136.264ZM13.8271 143.744C12.4647 142.033 11.224 140.273 10.0319 138.464C13.1702 137.437 16.3572 136.508 19.4712 135.237C20.4443 136.899 21.466 138.562 22.5364 140.2C19.4954 141.055 16.5761 142.278 13.8271 143.744ZM18.133 145.162C20.4685 144.624 22.8285 144.111 25.091 143.255C25.9425 144.258 26.7696 145.26 27.6454 146.262C24.4584 146.018 21.2714 145.7 18.133 145.162Z" fill="black"/>
<path d="M115.64 97.2481C120.384 108.713 126.71 120.203 136.976 127.561C142.353 131.57 149.554 133.746 156.122 131.546C163.275 129.223 168.238 122.867 171.449 116.291C179.088 100.646 179.502 82.4583 176.898 65.5172C176.217 62.9992 176.582 58.8923 172.982 58.8434C173.809 68.3284 175.074 77.8869 174.028 87.4452C173.03 97.6881 170.817 108.2 165.002 116.854C161.791 121.45 157.266 125.85 151.451 126.485C145.126 126.779 139.482 123.332 134.884 119.298C139.141 112.209 142.912 104.631 144.25 96.3924C146.415 82.9227 146.172 68.524 140.333 55.9588C137.073 48.405 131.551 42.0979 125.615 36.5242C122.379 33.4196 117.976 32.075 113.767 30.9261C116.662 22.4922 121.601 13.4961 130.553 10.5137C138.922 7.72685 147.486 12.5671 153.349 18.3364C157.29 21.9055 159.65 26.8436 163.64 30.3394C163.202 25.5235 159.869 21.7344 157.022 18.1164C152.765 13.0561 147.072 8.6069 140.577 7.1157C138.801 6.70012 136.952 6.52898 135.078 6.60232C128.68 6.72455 122.817 10.367 118.9 15.2807C113.572 21.9789 110.896 30.3638 109.388 38.6754C106.152 58.2811 108.439 78.7669 115.64 97.2481ZM121.163 55.1765C122.817 53.3675 125.226 55.3232 126.223 56.9122C129.021 61.4347 131.429 66.4706 131.794 71.8487C132.524 77.0312 133.084 82.2871 132.573 87.5186C132.354 89.8165 130.48 91.381 128.85 92.75C127.196 87.0785 128.85 80.9426 126.88 75.32C125.493 71.1642 120.19 69.9175 119.144 65.5905C118.292 62.0947 119.095 58.11 121.163 55.1765Z" fill="black"/>
<path d="M106.152 103.311C110.385 111.182 113.816 119.958 121.211 125.459C119.946 122.843 118.462 120.325 116.905 117.856C113.816 113.114 111.821 107.809 109.485 102.7C105.763 94.3146 104.449 85.1473 102.892 76.2001C101.311 63.3415 102.333 50.1651 105.325 37.5754C107.077 30.1683 108.099 22.2722 112.94 16.0874C109.948 18.4587 107.977 21.8078 106.955 25.4502C101.53 42.9291 96.8103 61.3614 99.5837 79.7448C101.019 87.763 102.454 95.9769 106.152 103.311Z" fill="black"/>
<path d="M96.1534 132.793C94.6451 129.297 92.9665 125.703 89.8525 123.381C90.4364 127.317 92.7718 130.739 96.1534 132.793Z" fill="black"/>
<path d="M85.96 128.955C85.1328 127.341 83.0893 127.366 81.6296 126.828C83.1866 130.055 85.0842 133.11 87.1764 135.995C87.0061 133.624 87.1764 131.081 85.96 128.955Z" fill="black"/>
<path d="M82.4082 137.266C81.7756 132.744 79.2942 128.588 75.28 126.339C76.5208 130.592 78.8319 134.577 82.4082 137.266Z" fill="black"/>
<path d="M74.55 137.388C74.4527 136.166 74.696 134.895 74.2825 133.77C72.6768 131.472 69.8061 130.764 67.3003 130.104C69.5871 132.67 72.8227 134.308 74.55 137.388Z" fill="black"/>
</svg>
